<svg xmlns="http://www.w3.org/2000/svg" version="1.1" xmlns:xlink="http://www.w3.org/1999/xlink" xmlns:svgjs="http://svgjs.dev/svgjs" width="765" height="625" viewBox="0 0 324.0960205078125 300" class="svg-animations " style="background-color: rgb(26, 32, 44);"><svg viewBox="0 0 134 139" width="50" height="50" style="fill: rgb(255, 255, 255);" x="137.04801025390626" y="94"><svg width="134" height="134" viewBox="0 0 134 134" xmlns="http://www.w3.org/2000/svg">
	<path d="M67 0C29.9996 0 0 29.9996 0 67C0 78.8106 3.0596 89.8951 8.42686 99.5277L26.8233 81.1312V54.3467H40.2285V67.726L67 40.9545L125.573 99.5277C130.927 89.8951 134 78.8106 134 67C134 29.9996 104 0 67 0Z"/>
	<path d="M67 54.3467L13.7292 107.617C25.9676 123.654 45.2716 134 67 134C88.7283 134 108.032 123.654 120.271 107.617L67 54.3467ZM63.3829 119.532H52.5317V108.68H63.3829V119.532ZM63.3829 103.235H52.5317V92.3842H63.3829V103.235ZM81.4812 119.532H70.63V108.68H81.4812V119.532ZM81.4812 103.235H70.63V92.3842H81.4812V103.235Z"/>
	</svg></svg><svg style="fill: rgb(255, 255, 255);" x="27.00800170898438" y="144"><path d="M23.76 9.95L23.76 9.95Q23.76 12.11 22.87 13.30Q21.98 14.49 20.52 14.49L20.52 14.49Q19.76 14.49 19.25 14.22Q18.74 13.95 18.20 13.35L18.20 13.35Q18.95 12.81 19.36 11.79Q19.76 10.76 19.76 9.63L19.76 9.63Q19.76 8.71 19.47 7.79Q19.17 6.87 18.52 6.15Q17.87 5.42 16.90 4.96Q15.93 4.50 14.58 4.50L14.58 4.50Q13.18 4.50 12.07 5.01Q10.96 5.52 10.23 6.41Q9.50 7.31 9.13 8.49Q8.75 9.68 8.75 11.03L8.75 11.03Q8.75 13.62 10.02 15.19Q11.29 16.76 13.18 17.84Q15.07 18.92 17.31 19.89Q19.55 20.86 21.44 22.29Q23.33 23.72 24.60 25.91Q25.87 28.10 25.87 31.71L25.87 31.71Q25.87 34.95 24.79 37.25Q23.71 39.54 21.95 40.95Q20.20 42.35 17.93 43Q15.66 43.65 13.28 43.65L13.28 43.65Q11.18 43.65 9.13 43.16Q7.07 42.68 5.45 41.62Q3.83 40.57 2.83 38.92Q1.84 37.28 1.84 34.95L1.84 34.95Q1.84 33.60 2.21 32.20Q2.59 30.80 3.32 29.66Q4.05 28.53 5.16 27.80Q6.26 27.07 7.72 27.07L7.72 27.07Q8.91 27.07 9.75 27.72Q10.58 28.37 11.23 30.15L11.23 30.15Q9.94 30.20 9.10 30.69Q8.26 31.17 7.78 31.88Q7.29 32.58 7.10 33.39Q6.91 34.20 6.91 34.90L6.91 34.90Q6.91 36.36 7.56 37.44Q8.21 38.52 9.21 39.25Q10.21 39.98 11.37 40.33Q12.53 40.68 13.61 40.68L13.61 40.68Q16.09 40.68 17.71 38.79Q19.33 36.90 19.33 33.33L19.33 33.33Q19.33 30.31 18.17 28.55Q17.01 26.80 15.23 25.61Q13.45 24.42 11.42 23.56Q9.40 22.70 7.61 21.51Q5.83 20.32 4.67 18.46Q3.51 16.59 3.51 13.46L3.51 13.46Q3.51 10.76 4.43 8.71Q5.35 6.66 6.83 5.28Q8.32 3.90 10.29 3.23Q12.26 2.55 14.36 2.55L14.36 2.55Q15.28 2.55 16.88 2.77Q18.47 2.99 20.01 3.74Q21.55 4.50 22.65 5.98Q23.76 7.47 23.76 9.95ZM39.37 8.39L45.20 7.58L45.20 38.79Q46.22 39.54 47.17 39.87Q48.11 40.19 48.98 40.19L48.98 40.19Q51.08 40.19 52.52 38.65Q53.95 37.11 54.86 34.66Q55.78 32.20 56.19 29.18Q56.59 26.15 56.59 23.24L56.59 23.24Q56.59 18.21 55.89 14.65Q55.19 11.09 53.62 8.82Q52.06 6.55 49.57 5.50Q47.09 4.44 43.58 4.44L43.58 4.44Q41.15 4.44 38.93 5.20Q36.72 5.96 35.05 7.39Q33.37 8.82 32.37 10.90Q31.37 12.98 31.37 15.62L31.37 15.62Q31.37 17.19 31.72 18.27Q32.08 19.35 32.53 20.05Q32.99 20.75 33.51 21.16Q34.02 21.56 34.34 21.78L34.34 21.78Q31.05 21.78 29.16 20.27Q27.27 18.75 27.27 15.19L27.27 15.19Q27.27 12.71 28.57 10.38Q29.86 8.06 32.16 6.33Q34.45 4.61 37.56 3.55Q40.66 2.50 44.33 2.50L44.33 2.50Q49.52 2.50 53.08 4.26Q56.65 6.01 58.86 8.90Q61.07 11.79 62.05 15.51Q63.02 19.24 63.02 23.18L63.02 23.18Q63.02 27.02 62.23 30.69Q61.45 34.36 60.08 37.25Q58.70 40.14 56.81 41.92Q54.92 43.70 52.65 43.70L52.65 43.70Q51.03 43.70 49.19 42.95Q47.36 42.19 45.20 40.57L45.20 40.57L45.20 43L39.37 43L39.37 8.39ZM81.65 2.72L88.83 38.68L96.34 2.77L99.41 2.77L90.34 43L84.35 43L76.30 5.58Q74.14 5.58 72.71 6.31Q71.28 7.04 70.44 8.25Q69.61 9.47 69.25 11.00Q68.90 12.54 68.90 14.16L68.90 14.16Q68.90 16.49 69.55 18.32Q70.20 20.16 71.44 21.72L71.44 21.72Q70.36 21.72 69.28 21.40Q68.20 21.08 67.34 20.27Q66.47 19.46 65.93 18.08Q65.39 16.70 65.39 14.60L65.39 14.60Q65.39 12.17 66.31 9.95Q67.23 7.74 69.01 6.09Q70.79 4.44 73.39 3.47Q75.98 2.50 79.33 2.50L79.33 2.50Q79.92 2.50 80.49 2.55Q81.05 2.61 81.65 2.72L81.65 2.72ZM113.29 16L118.69 16L118.69 34.36Q118.69 34.90 118.75 35.71Q118.80 36.52 119.04 37.30Q119.29 38.09 119.77 38.65Q120.26 39.22 121.12 39.22L121.12 39.22Q123.77 39.22 125.01 33.33L125.01 33.33L127.01 33.33Q126.41 36.74 125.50 38.71Q124.58 40.68 123.55 41.70Q122.53 42.73 121.45 43.03Q120.37 43.32 119.50 43.32L119.50 43.32Q117.61 43.32 116.42 42.59Q115.24 41.87 114.53 40.73Q113.83 39.60 113.56 38.19Q113.29 36.79 113.29 35.49L113.29 35.49L113.29 16ZM112.32 8.22L112.32 8.22Q112.32 6.77 113.35 5.69Q114.37 4.61 115.88 4.61L115.88 4.61Q117.34 4.61 118.42 5.69Q119.50 6.77 119.50 8.22L119.50 8.22Q119.50 9.74 118.42 10.76Q117.34 11.79 115.88 11.79L115.88 11.79Q114.37 11.79 113.35 10.76Q112.32 9.74 112.32 8.22ZM134.95 2.61L134.95 43L129.11 43L129.11 9.63L123.07 9.63L123.23 6.82Q124.25 6.82 125.50 6.69Q126.74 6.55 128.20 6.09Q129.65 5.63 131.33 4.82Q133.00 4.01 134.95 2.61L134.95 2.61ZM153.25 39.44L153.25 39.44Q154.71 39.44 155.87 38.76Q157.03 38.09 157.84 36.98Q158.65 35.87 159.06 34.47Q159.46 33.06 159.46 31.61L159.46 31.61Q159.46 25.99 152.98 22.64L152.98 22.64Q151.63 23.13 150.47 24.02Q149.31 24.91 148.47 26.10Q147.64 27.29 147.18 28.69Q146.72 30.09 146.72 31.50L146.72 31.50Q146.72 32.79 147.15 34.20Q147.58 35.60 148.42 36.76Q149.26 37.92 150.47 38.68Q151.69 39.44 153.25 39.44ZM153.20 43.32L153.20 43.32Q150.44 43.32 148.20 42.43Q145.96 41.54 144.40 39.98Q142.83 38.41 141.99 36.20Q141.16 33.98 141.16 31.39L141.16 31.39Q141.16 27.29 143.18 24.50Q145.21 21.72 148.93 20.48L148.93 20.48Q145.96 18.81 144.56 16.43Q143.15 14.06 143.15 11.52L143.15 11.52Q143.15 9.79 143.80 8.17Q144.45 6.55 145.75 5.28Q147.04 4.01 148.93 3.26Q150.82 2.50 153.31 2.50L153.31 2.50Q155.63 2.50 157.52 3.20Q159.41 3.90 160.73 5.09Q162.05 6.28 162.76 7.87Q163.46 9.47 163.46 11.30L163.46 11.30Q163.46 13.73 162.13 16.30Q160.81 18.86 157.95 20.48L157.95 20.48Q160.06 21.18 161.51 22.29Q162.97 23.40 163.89 24.80Q164.81 26.21 165.24 27.83Q165.67 29.45 165.67 31.12L165.67 31.12Q165.67 33.60 164.83 35.82Q164.00 38.03 162.40 39.71Q160.81 41.38 158.49 42.35Q156.17 43.32 153.20 43.32ZM153.25 18.70L153.25 18.70Q154.44 18.00 155.41 17.00Q156.38 16 157.03 14.87Q157.68 13.73 158.03 12.54Q158.38 11.36 158.38 10.28L158.38 10.28Q158.38 9.25 158.06 8.28Q157.73 7.31 157.11 6.58Q156.49 5.85 155.60 5.42Q154.71 4.98 153.52 4.98L153.52 4.98Q151.09 4.98 149.71 6.74Q148.34 8.49 148.34 10.92L148.34 10.92Q148.34 13.03 149.50 15.14Q150.66 17.24 153.25 18.70ZM170.15 16L175.55 16L175.55 20.10Q176.36 18.65 177.20 17.75Q178.04 16.86 178.90 16.43Q179.77 16 180.55 15.87Q181.33 15.73 182.03 15.73L182.03 15.73Q184.46 15.73 185.95 16.65Q187.43 17.57 188.19 19.00Q188.95 20.43 189.19 22.13Q189.43 23.83 189.43 25.40L189.43 25.40Q189.43 26.37 189.38 27.53Q189.32 28.69 189.27 29.91Q189.22 31.12 189.16 32.34Q189.11 33.55 189.11 34.58L189.11 34.58Q189.11 35.01 189.16 35.79Q189.22 36.57 189.43 37.33Q189.65 38.09 190.13 38.65Q190.62 39.22 191.54 39.22L191.54 39.22Q192.78 39.22 193.78 37.82Q194.78 36.41 195.43 33.33L195.43 33.33L197.42 33.33Q196.83 36.74 195.91 38.71Q194.99 40.68 193.97 41.70Q192.94 42.73 191.92 43.03Q190.89 43.32 190.03 43.32L190.03 43.32Q188.30 43.32 187.11 42.65Q185.92 41.97 185.17 40.84Q184.41 39.71 184.06 38.19Q183.71 36.68 183.71 35.06L183.71 35.06Q183.71 34.58 183.73 33.25Q183.76 31.93 183.79 30.42Q183.82 28.91 183.84 27.56Q183.87 26.21 183.87 25.67L183.87 25.67Q183.87 23.94 183.60 22.80Q183.33 21.67 182.84 21.02Q182.36 20.37 181.74 20.10Q181.12 19.83 180.41 19.83L180.41 19.83Q178.74 19.83 177.52 21.18Q176.31 22.53 175.55 25.72L175.55 25.72L175.55 43L170.15 43L170.15 16ZM195.43 16L200.83 16L200.83 34.36Q200.83 34.90 200.88 35.71Q200.93 36.52 201.18 37.30Q201.42 38.09 201.91 38.65Q202.39 39.22 203.26 39.22L203.26 39.22Q205.90 39.22 207.14 33.33L207.14 33.33L209.14 33.33Q208.55 36.74 207.63 38.71Q206.71 40.68 205.69 41.70Q204.66 42.73 203.58 43.03Q202.50 43.32 201.64 43.32L201.64 43.32Q199.75 43.32 198.56 42.59Q197.37 41.87 196.67 40.73Q195.97 39.60 195.70 38.19Q195.43 36.79 195.43 35.49L195.43 35.49L195.43 16ZM194.45 8.22L194.45 8.22Q194.45 6.77 195.48 5.69Q196.51 4.61 198.02 4.61L198.02 4.61Q199.48 4.61 200.56 5.69Q201.64 6.77 201.64 8.22L201.64 8.22Q201.64 9.74 200.56 10.76Q199.48 11.79 198.02 11.79L198.02 11.79Q196.51 11.79 195.48 10.76Q194.45 9.74 194.45 8.22ZM212.49 13.41L212.49 16L216.86 16L216.86 17.89L212.49 17.89L212.49 47.32Q212.49 50.18 211.92 51.96Q211.36 53.75 210.44 54.77Q209.52 55.80 208.30 56.15Q207.09 56.50 205.74 56.50L205.74 56.50Q202.82 56.50 201.45 55.15Q200.07 53.80 200.07 51.26L200.07 51.26Q200.07 49.91 200.69 48.78Q201.31 47.64 202.31 46.70Q203.31 45.75 204.55 45.02Q205.79 44.30 207.09 43.76L207.09 43.76L207.09 11.90Q207.09 7.20 209.30 4.85Q211.52 2.50 214.97 2.50L214.97 2.50Q216.59 2.50 217.94 2.99Q219.29 3.47 220.32 4.50Q221.35 5.52 221.91 7.04Q222.48 8.55 222.48 10.60L222.48 10.60L220.37 10.60Q220.05 8.44 219.21 7.20Q218.38 5.96 216.43 5.96L216.43 5.96Q215.14 5.96 214.38 6.52Q213.62 7.09 213.19 8.06Q212.76 9.03 212.62 10.41Q212.49 11.79 212.49 13.41L212.49 13.41ZM204.66 53.69L204.66 53.69Q206.23 53.69 206.66 52.02Q207.09 50.34 207.09 47.43L207.09 47.43L207.09 45.75Q204.66 46.94 203.42 48.35Q202.18 49.75 202.18 51.10L202.18 51.10Q202.18 52.18 202.88 52.94Q203.58 53.69 204.66 53.69ZM220.05 16L225.45 16L225.45 34.36Q225.45 34.90 225.50 35.71Q225.56 36.52 225.80 37.30Q226.04 38.09 226.53 38.65Q227.02 39.22 227.88 39.22L227.88 39.22Q230.53 39.22 231.77 33.33L231.77 33.33L233.77 33.33Q233.17 36.74 232.25 38.71Q231.34 40.68 230.31 41.70Q229.28 42.73 228.20 43.03Q227.12 43.32 226.26 43.32L226.26 43.32Q224.37 43.32 223.18 42.59Q221.99 41.87 221.29 40.73Q220.59 39.60 220.32 38.19Q220.05 36.79 220.05 35.49L220.05 35.49L220.05 16ZM219.08 8.22L219.08 8.22Q219.08 6.77 220.10 5.69Q221.13 4.61 222.64 4.61L222.64 4.61Q224.10 4.61 225.18 5.69Q226.26 6.77 226.26 8.22L226.26 8.22Q226.26 9.74 225.18 10.76Q224.10 11.79 222.64 11.79L222.64 11.79Q221.13 11.79 220.10 10.76Q219.08 9.74 219.08 8.22ZM248.62 22.75L248.62 22.75Q248.62 26.53 245.51 29.07Q242.41 31.61 236.90 32.20L236.90 32.20Q237.11 34.36 237.68 35.71Q238.25 37.06 239.06 37.84Q239.87 38.63 240.92 38.92Q241.97 39.22 243.11 39.22L243.11 39.22Q245.70 39.22 247.97 37.87Q250.24 36.52 251.64 33.33L251.64 33.33L253.37 33.33Q252.67 35.33 251.42 37.14Q250.18 38.95 248.51 40.33Q246.83 41.70 244.89 42.51Q242.95 43.32 240.89 43.32L240.89 43.32Q239.00 43.32 237.25 42.68Q235.49 42.03 234.14 40.54Q232.79 39.06 231.96 36.68Q231.12 34.31 231.12 30.85L231.12 30.85Q231.12 28.58 231.63 25.94Q232.15 23.29 233.36 21.02Q234.58 18.75 236.55 17.24Q238.52 15.73 241.43 15.73L241.43 15.73Q242.78 15.73 244.05 16.03Q245.32 16.32 246.35 17.11Q247.37 17.89 247.99 19.24Q248.62 20.59 248.62 22.75ZM236.84 30.09L236.84 30.09Q240.68 29.50 242.92 27.39Q245.16 25.29 245.16 22.21L245.16 22.21Q245.16 20.16 244.46 19.27Q243.76 18.38 242.46 18.38L242.46 18.38Q241.06 18.38 240.00 19.46Q238.95 20.54 238.25 22.24Q237.55 23.94 237.19 26.02Q236.84 28.10 236.84 30.09ZM251.59 16L256.99 16L256.99 20.54Q257.63 19.56 258.25 18.70Q258.88 17.84 259.63 17.19Q260.39 16.54 261.31 16.14Q262.22 15.73 263.36 15.73L263.36 15.73Q265.19 15.73 266.06 16.68Q266.92 17.62 266.92 18.97L266.92 18.97Q266.92 19.78 266.65 20.32Q266.38 20.86 266.00 21.18Q265.63 21.51 265.19 21.64Q264.76 21.78 264.44 21.78L264.44 21.78Q263.95 21.78 263.65 21.56Q263.36 21.35 263.06 21.10Q262.76 20.86 262.39 20.64Q262.01 20.43 261.41 20.43L261.41 20.43Q260.17 20.43 259.04 21.29Q257.90 22.16 256.99 23.13L256.99 23.13L256.99 43L251.59 43L251.59 16Z"/></svg><text fill="#ffffff" font-family="Verdana" font-size="16px" x="162.04801025390626" y="206"><tspan dy="0" x="162.04801025390626"></tspan></text></svg>