<svg viewBox="0 0 24 24" fill="#fff" xmlns="http://www.w3.org/2000/svg">
    <path d="M12 .5C5.73.5.5 5.74.5 12a11.5 11.5 0 008.18 11c.6.12.82-.26.82-.58 0-.29-.01-1.06-.02-2.08-3.33.72-4.04-1.61-4.04-1.61-.55-1.4-1.35-1.77-1.35-1.77-1.1-.75.08-.74.08-.74 1.22.08 1.86 1.25 1.86 1.25 1.08 1.85 2.83 1.32 3.52 1.01.11-.79.42-1.32.76-1.62-2.66-.3-5.46-1.33-5.46-5.9 0-1.3.47-2.36 1.25-3.2-.13-.3-.54-1.5.12-3.12 0 0 1-.31 3.3 1.23a11.54 11.54 0 016 0c2.29-1.54 3.29-1.23 3.29-1.23.66 1.62.26 2.82.13 3.12.77.84 1.24 1.9 1.24 3.2 0 4.58-2.8 5.59-5.47 5.88.43.37.82 1.1.82 2.22 0 1.61-.02 2.91-.02 3.3 0 .32.22.7.83.58A11.5 11.5 0 0023.5 12c0-6.26-5.23-11.5-11.5-11.5z"/>
</svg>